<svg xmlns="http://www.w3.org/2000/svg" viewBox="0 0 157.2 99.16"><defs><style>.cls-1{fill:#fff;}</style></defs><g id="圖層_2" data-name="圖層 2"><g id="圖層_1-2" data-name="圖層 1"><g id="logo_1"><path class="cls-1" d="M157.2,1.63c0,.9-.53,1.36-1.58,1.36h-1a47.75,47.75,0,0,0-5.09-.34q-14.61,0-34.42,12.67A108.54,108.54,0,0,0,99,27.77Q92.6,34,75,53.85,54.23,77.39,43.7,85q-5.55,4.05-6.11,4c-.23,0-.34-.1-.34-.31,0,0,.41-.62,1.24-1.74A127.81,127.81,0,0,0,55.67,56.4q7.17-17.7,7.17-29.53,0-19-15.52-19-6.1,0-14.09,4.17A58.45,58.45,0,0,0,18.68,22.81,60.26,60.26,0,0,0,7.27,39,38.86,38.86,0,0,0,3,55.71q0,7,3.79,11T17,70.8q12.57,0,24.45-16Q50,43.36,50,34.36a9.78,9.78,0,0,0-2-6.45,6.69,6.69,0,0,0-5.41-2.39,9.08,9.08,0,0,0-3.82.87c-1.27.58-1.9,1.17-1.9,1.77,0,.23.13.34.4.34h.45c1.06-.15,1.64-.22,1.76-.22,1.69,0,2.54.92,2.54,2.76a4,4,0,0,1-1.36,3,4.51,4.51,0,0,1-3.17,1.27c-2.34,0-3.5-1.2-3.5-3.61a6.52,6.52,0,0,1,2.54-5.1,9.07,9.07,0,0,1,6.06-2.16,7.69,7.69,0,0,1,6.11,2.67,10.31,10.31,0,0,1,2.32,7q0,11-11,24.22Q28.84,71.76,17,71.76A15.82,15.82,0,0,1,4.73,66.58Q0,61.39,0,53.17,0,37.51,15.8,22.22T47.69,6.93q9.56,0,15.49,6.62t5.94,17.38q0,11.49-6.51,24.18t-21,29.46a3.09,3.09,0,0,0-.57.79l.11.17c.65,0,3-1.75,7.08-5.24A106.42,106.42,0,0,0,58,70.88Q62.5,66,81.86,44.06A212,212,0,0,1,102,23.64,123.64,123.64,0,0,1,121.54,10q17.6-10,31-10C155.65,0,157.2.55,157.2,1.63Z"/><path class="cls-1" d="M132.82,45.7q-.12.93-8.07,7.57A84.21,84.21,0,0,1,102.46,66l-3.92,5.12Q87.85,85.26,75.78,92.56q-11.58,7-19.36,6.57a6.77,6.77,0,0,1-4.49-1.79,4.44,4.44,0,0,1-1.41-3.85q1.41-12,33.37-22.51,6.92-2.31,8.93-3.13l13.36-17.62q-8.33,8.16-11.62,10.46a10.17,10.17,0,0,1-6.45,2.13,7.12,7.12,0,0,1-5.52-3A9.07,9.07,0,0,1,81,53.11Q82.16,43,98,35.64q10.6-4.91,16.27-4.58c2.63.16,3.8,1.52,3.49,4.09a7.11,7.11,0,0,1-.88,2.47l4.38-5.68a13.85,13.85,0,0,0,3,.59,42.88,42.88,0,0,0,5.06-.12c-.35.34-2.63,3.14-6.84,8.43l-19.29,24A89.6,89.6,0,0,0,118,57.34a93.59,93.59,0,0,0,13.07-10.92c.75-.74,1.23-1.1,1.45-1.09A.32.32,0,0,1,132.82,45.7ZM92,68.81q-1.32.57-7.83,2.89-31.6,11.44-32.85,22a3.57,3.57,0,0,0,1.16,3.12,5.72,5.72,0,0,0,3.74,1.46q7.26.42,14.88-5.75t20-22.56Zm25-33.71c.23-2-.73-3-2.88-3.16q-5.92-.35-17,9.56T85.44,57.84Q85,61.76,88.8,62t14.41-9.62Q116.49,39.9,117.05,35.1Z"/><path class="cls-1" d="M43.53,39.57a1.87,1.87,0,1,1-1.86-1.85A1.86,1.86,0,0,1,43.53,39.57Z"/><path class="cls-1" d="M113,66.75a1.66,1.66,0,1,1-1.66-1.65A1.66,1.66,0,0,1,113,66.75Z"/><path class="cls-1" d="M81.93,37.56a1.83,1.83,0,1,1-1.83-1.81A1.82,1.82,0,0,1,81.93,37.56Z"/><path class="cls-1" d="M38.42,41.69a1.35,1.35,0,1,1-1.35-1.34A1.35,1.35,0,0,1,38.42,41.69Z"/><path class="cls-1" d="M99.07,93.17a1.35,1.35,0,1,1-1.35-1.34A1.35,1.35,0,0,1,99.07,93.17Z"/><path class="cls-1" d="M16.23,52.29c3.62,0,7.4-.14,11.28.09,1.94.11,3.91.31,5.87.62a38.53,38.53,0,0,1,5.86,1.35,24.69,24.69,0,0,1,10.4,6.1,25.11,25.11,0,0,1,3.76,5,50.84,50.84,0,0,1,2.9,5.92c.89,2.08,1.74,4.22,2.73,6.33a32.83,32.83,0,0,0,3.56,6.09,19.93,19.93,0,0,0,5.24,4.8,22,22,0,0,0,6.32,2.58l.81.19c.27.07.54.1.81.15.53.09,1.07.21,1.6.25s1.07.13,1.59.17l1.57.09a34.73,34.73,0,0,0,6.14-.18,43.79,43.79,0,0,0,5.76-1.07,40.91,40.91,0,0,0,5.29-1.71,52.3,52.3,0,0,1-11.14,1.24,37.43,37.43,0,0,1-5.84-.45l-1.49-.22-1.46-.28c-.5-.09-1-.24-1.46-.36-.24-.06-.49-.11-.72-.19l-.71-.23A20,20,0,0,1,69.56,86a17.54,17.54,0,0,1-4.2-4.22,32.5,32.5,0,0,1-3-5.56c-.89-2-1.71-4.13-2.63-6.28a50.62,50.62,0,0,0-3.18-6.33A27.61,27.61,0,0,0,52.05,58a24.11,24.11,0,0,0-5.76-4A28.72,28.72,0,0,0,40,51.74a38.14,38.14,0,0,0-6.34-.91,51.89,51.89,0,0,0-6.11,0A96,96,0,0,0,16.23,52.29Z"/><path class="cls-1" d="M97.19,77.78a.89.89,0,0,1-.68.46c-.56.13-1.64-.21-2.13.75s-.71,3.3.21,6.25,2.79,3.24,3.56,3.24a10.34,10.34,0,0,0,2.66-.48,3.07,3.07,0,0,1-1.92-2.53c0-.7-.3-.53-.38-.59A2.78,2.78,0,0,1,97,82a5.11,5.11,0,0,1,1.9-3.16c.38-.51.7-1.34,1.3-1.42a1.92,1.92,0,0,1,1.38-2.12c1.09-.32,2.16-.72,2.16-.72s-.15-.39-.9-.39a5.63,5.63,0,0,0-3.11.3C98.25,75.13,97.72,76,97.19,77.78Z"/><path class="cls-1" d="M102.09,76.56s3.39-.64,4.89-.22c.7.28,1.47,1.52,2.11,1.55,0,0,1.15-.19,1.44.2s.7,2.25,1,2.57a3.88,3.88,0,0,1,.29,1.37,6.67,6.67,0,0,0,.89-1.81c0-.51.23-2-.76-2.48a4.76,4.76,0,0,1-2.18-1.54,2.51,2.51,0,0,0-2.58-1.65,15.39,15.39,0,0,0-1.7.23,7.61,7.61,0,0,0-2.62.89C102.31,76.18,101.78,76.61,102.09,76.56Z"/><path class="cls-1" d="M112.8,81.84s-.48.12-.55.44a3.35,3.35,0,0,0,0,1.24c.1.61-.18,1.34-.06,1.66a2.89,2.89,0,0,1,0,1.4c0,.35.45.47.89-.23s.71-.79.71-.79a3.37,3.37,0,0,0,.92-3.28,3.76,3.76,0,0,0-.7-1.75c-.19-.22-.32-.25-.51.2S113.15,81.67,112.8,81.84Z"/><path class="cls-1" d="M111.33,86.23a3.41,3.41,0,0,1-.29,1.24c-.23.25-.23.51-.42,1A3.93,3.93,0,0,1,109.15,90a2.36,2.36,0,0,1-1.31.29,12.75,12.75,0,0,1-3.19.57,16.38,16.38,0,0,1-3.9-.22,3.06,3.06,0,0,1-1.68-1.05c-.08-.16-.18-.26.59-.26a11.37,11.37,0,0,0,2.91-.29,1.82,1.82,0,0,1,1.69-.28c.87.19,1.09.16,1.67-.29s.84-.76,1.47-.6,1.24.1,1.4-.48a1,1,0,0,1,1.12-.7,1.33,1.33,0,0,0,1.06-.47C111.2,86,111.34,86.07,111.33,86.23Z"/><path class="cls-1" d="M103.37,78.53a12.61,12.61,0,0,0,1.34-.44,7.18,7.18,0,0,1,1.47-.23c.1,0,.35-.41-.83-.7a5.28,5.28,0,0,0-2.56,0,9.75,9.75,0,0,0-2,.61c-.45.22-1,1.17-1.25,1.59s-1.34,1.26-1.5,1.93a2.81,2.81,0,0,0,.51,2.52c.7.76,1.06.7,2,.79a4.06,4.06,0,0,0,2.37-.41c.16-.22.06-.35-.26-.32a3.86,3.86,0,0,1-2-.82,1.69,1.69,0,0,1-.41-1.91,6.19,6.19,0,0,1,1.76-2A5.68,5.68,0,0,1,103.37,78.53Z"/><path class="cls-1" d="M100.43,85.78s-.23.57.57,1.4,1.41,1,2,.83,1.08.07,1.63.07a1.23,1.23,0,0,0,1.08-.77c.26-.45.93-.13,1.16-.13a1.37,1.37,0,0,0,1.18-1.1c-.1-1,.06-1,0-1.45s0-1.11-.45-1.39A8.57,8.57,0,0,0,106,84a6.17,6.17,0,0,1-1.53,1.12,4.92,4.92,0,0,1-2.39.31C101.39,85.27,100.38,85.18,100.43,85.78Z"/><path class="cls-1" d="M108.74,83.24a3.14,3.14,0,0,1,.19,1.52c-.19.45-.53,1,0,1.09s2.38-.55,2.38-2a8,8,0,0,0-.58-3.06c-.19-.4-.33-1.33-.77-1.68a2.39,2.39,0,0,0-1.35-.66c-.53,0-2.19,0-2.73,0a9,9,0,0,0-2.05.92c-.45.19-1.22.13-1.12.44s.86.39,1.09.55.76.75,1,.43.92-1.36,1.6-1.36a2,2,0,0,1,1.67.77C108.32,80.66,108.58,82.68,108.74,83.24Z"/><path class="cls-1" d="M107.4,80.69A12.34,12.34,0,0,1,106.27,83a2.57,2.57,0,0,1-1.56.83,7.43,7.43,0,0,1-2-.41c-.31-.1-.5-.54.14-.89a3.84,3.84,0,0,1,1.72-.74c.71,0,1.08-1.33,1.66-1.39S107.55,80.33,107.4,80.69Z"/><path class="cls-1" d="M103.69,81.17s-1.51.74-1.59,1-.39.49-.65-.07-.13-.72.38-1.13a1.58,1.58,0,0,1,1.09-.32C103.14,80.57,104.08,81,103.69,81.17Z"/><path class="cls-1" d="M21.91,66.48s-1.42,2.49.76,4,4,.22,5-.7,2-2.88.76-6.08-6-5-10-3.91S9.54,65.62,9.85,71.37c.38,7,3.44,10.49,8,14.23a26.42,26.42,0,0,0,6.17,3c1.64.54,9.91,1.61,14.4-.71,0,.33-.76.9-.76.9A21.48,21.48,0,0,1,31.55,90a22,22,0,0,1-12.92-3.08C8.54,80.92,9,72.5,9,69.3A12.37,12.37,0,0,1,18.36,58a11.26,11.26,0,0,1,7.34.33,9.59,9.59,0,0,1,4.81,4.08c1.36,2.83.84,7.14-1.55,9.32a6.56,6.56,0,0,1-2.31,1.32c-3.35,1-6.86-.67-7-4.36-.11-2.33,1.47-2.93,2-3S22.14,65.92,21.91,66.48Z"/><path class="cls-1" d="M30.25,89.35s-5.67.2-11.89-4.47-6.93-10.1-6.49-14.22a10.27,10.27,0,0,1,7.58-8.58,6.74,6.74,0,0,1,5.78,1.19s1.15.87,1.37.44-.11-1.11-.87-1.8-7-4.28-12.39,2.34-1,15-1,15S18.09,89.58,30.25,89.35Z"/><path d="M10.19,28.64,17.1,45.16h.63l6.58-16c1.07-2.64,2.42-3.95,4.06-3.95v-.63H21.86v.59c1.33,0,2,.48,2,1.44A3.92,3.92,0,0,1,23.53,28L18.35,40.65,12.89,27.51a2.7,2.7,0,0,1-.25-1c0-.91.66-1.37,2-1.37v-.59H6.49v.59a3.14,3.14,0,0,1,2,.63A8.72,8.72,0,0,1,10.19,28.64ZM50.42,44.29a2.39,2.39,0,0,1-2-.7,4.24,4.24,0,0,1-.55-2.53V28.37a4.3,4.3,0,0,1,.55-2.54,2.39,2.39,0,0,1,2-.71v-.59h-8v.59a2.41,2.41,0,0,1,2,.69,4.44,4.44,0,0,1,.52,2.56V41.06a4.38,4.38,0,0,1-.53,2.53,2.38,2.38,0,0,1-2,.7v.59h8Zm22.41,0c-1.17,0-1.76-.46-1.76-1.32a7.52,7.52,0,0,1,.57-2.24l1-2.7H81l1.36,4.26a2.25,2.25,0,0,1,.17.78c0,.81-.64,1.22-1.92,1.22v.59H88.5v-.59a3.46,3.46,0,0,1-2-.45,4.43,4.43,0,0,1-1.18-2L79.23,24.3H76.94L70.38,41.09A6.27,6.27,0,0,1,69,43.54a3.44,3.44,0,0,1-1.92.75v.59h5.76Zm4.26-17.52,3.56,10.11H73ZM121.2,36.84h-9v.58H113a2.23,2.23,0,0,1,1.91.75,4.71,4.71,0,0,1,.54,2.63v1.44c0,1.45-1.25,2.17-3.75,2.17a8.42,8.42,0,0,1-6.57-2.95A10.77,10.77,0,0,1,102.54,34a9.72,9.72,0,0,1,2.26-6.66,7.39,7.39,0,0,1,5.8-2.57,8.24,8.24,0,0,1,4.92,1.5,5.8,5.8,0,0,1,2.48,4h.63v-6h-.71a1.23,1.23,0,0,1-1.25.68,9,9,0,0,1-2.09-.36,14.88,14.88,0,0,0-4-.59,11.69,11.69,0,0,0-5.75,1.49,10.87,10.87,0,0,0-4.22,4,11,11,0,0,0-1.52,5.73,8.94,8.94,0,0,0,3.46,7.32q3.45,2.78,9.63,2.77c.79,0,1.89-.05,3.32-.15a21.56,21.56,0,0,0,2.92-.35V40.17a2.91,2.91,0,0,1,.63-2.13,3,3,0,0,1,2.13-.62ZM137,43.59a2.38,2.38,0,0,1-2,.7v.59H149.9l.64-4.57h-.66c-.42.85-.43,2.22-.8,2.6a2.85,2.85,0,0,1-1.35.77,3.72,3.72,0,0,1-1.74.21h-3.9a2,2,0,0,1-1.26-.31,1.34,1.34,0,0,1-.37-1.08V35.22h3.61a4.88,4.88,0,0,1,2.25.33,2.84,2.84,0,0,1,.87,1.63h.67v-5h-.67a2.78,2.78,0,0,1-.67,1.58,2.66,2.66,0,0,1-1.74.42h-4.32V25.52h4.89a5.34,5.34,0,0,1,2.77.47,3.43,3.43,0,0,1,1,1.94h.42v-3.4H134.6v.59a3.35,3.35,0,0,1,2.38.7,4.43,4.43,0,0,1,.53,2.55V41.1A4.45,4.45,0,0,1,137,43.59ZM19,55.48a1.63,1.63,0,0,0-.9.24,1.7,1.7,0,0,0-.38.38V52.85l-1.49.2v.12a.66.66,0,0,1,.58.24,1.33,1.33,0,0,1,.17.78v5.72h.2c.12-.27.27-.4.44-.4a.5.5,0,0,1,.19,0l.28.11a2,2,0,0,0,.78.13,2,2,0,0,0,1.44-.53,2.19,2.19,0,0,0,.65-1.67A2,2,0,0,0,20.24,56,1.87,1.87,0,0,0,19,55.48Zm.73,3.64a1.14,1.14,0,0,1-1,.56.91.91,0,0,1-.5-.13.81.81,0,0,1-.33-.38,1.87,1.87,0,0,1-.15-.64,7.06,7.06,0,0,1-.06-1,3.77,3.77,0,0,1,.17-1.32,1,1,0,0,1,.36-.45.84.84,0,0,1,.52-.18,1,1,0,0,1,.46.13,1.34,1.34,0,0,1,.4.36,1.94,1.94,0,0,1,.36.7,3,3,0,0,1,.13.87A2.49,2.49,0,0,1,19.69,59.12ZM28,57.05a1.52,1.52,0,0,0-.35-1,1.63,1.63,0,0,0-.56-.4,1.89,1.89,0,0,0-.72-.14,2,2,0,0,0-1.29.46,2.07,2.07,0,0,0-.78,1.72A2.15,2.15,0,0,0,24.71,59a1.85,1.85,0,0,0,.72.59,2.49,2.49,0,0,0,1,.19,1.91,1.91,0,0,0,1.1-.29,1.34,1.34,0,0,0,.54-.86l-.1,0a1.28,1.28,0,0,1-.3.55,1,1,0,0,1-.39.24,1.39,1.39,0,0,1-.5.09,1.56,1.56,0,0,1-.67-.15,1.74,1.74,0,0,1-.54-.43,2.28,2.28,0,0,1-.34-.68,2.86,2.86,0,0,1-.12-.82c0-.08,0-.19,0-.35ZM25.56,56a.94.94,0,0,1,.73-.36.88.88,0,0,1,.46.14,1.07,1.07,0,0,1,.35.38,2.05,2.05,0,0,1,.18.75H25.19A1.62,1.62,0,0,1,25.56,56Zm8.1,1.43a1.53,1.53,0,0,1-.34.17,6,6,0,0,1-.62.18,2.45,2.45,0,0,0-.55.19,1.12,1.12,0,0,0-.33.24,1,1,0,0,0-.26.67.86.86,0,0,0,.31.7,1.33,1.33,0,0,0,.85.26,1.47,1.47,0,0,0,.74-.18,3.49,3.49,0,0,0,.49-.38,1.2,1.2,0,0,0,.31.39.94.94,0,0,0,.57.17.74.74,0,0,0,.8-.51l-.08-.05a.67.67,0,0,1-.2.21.43.43,0,0,1-.24.06.38.38,0,0,1-.39-.35,2.9,2.9,0,0,1,0-.62V56.72a2.55,2.55,0,0,0,0-.49.79.79,0,0,0-.4-.47,2,2,0,0,0-.54-.2,2.86,2.86,0,0,0-.63-.08,2.48,2.48,0,0,0-.54.06,2,2,0,0,0-.47.14c-.24.12-.35.26-.35.42a.36.36,0,0,0,.11.28.37.37,0,0,0,.27.11.35.35,0,0,0,.35-.23l.13-.28a.56.56,0,0,1,.23-.29.6.6,0,0,1,.35-.1.71.71,0,0,1,.57.27,1.31,1.31,0,0,1,.21.83,1.2,1.2,0,0,1,0,.42A.61.61,0,0,1,33.66,57.38Zm.28-.07v.81a2.38,2.38,0,0,1-.15,1,.94.94,0,0,1-.31.4.82.82,0,0,1-.45.14.54.54,0,0,1-.45-.21.77.77,0,0,1-.17-.53,1,1,0,0,1,.22-.66,1.79,1.79,0,0,1,.25-.23c.09-.06.25-.16.49-.29A3.33,3.33,0,0,0,33.94,57.31Zm8,2.48,1.33-.18v-.1a.84.84,0,0,1-.33-.08.57.57,0,0,1-.21-.2.86.86,0,0,1-.1-.33,5.37,5.37,0,0,1,0-.7V55.56H41.16v.1a1,1,0,0,1,.5.2.61.61,0,0,1,.15.26,2.72,2.72,0,0,1,0,.48v1.32a4.94,4.94,0,0,1-.05.81,1.08,1.08,0,0,1-.18.44.94.94,0,0,1-.38.29,1.18,1.18,0,0,1-.5.11.93.93,0,0,1-.45-.1.79.79,0,0,1-.31-.26,1.24,1.24,0,0,1-.13-.41,7,7,0,0,1,0-.77V55.56H38.39v.1a1,1,0,0,1,.5.2.61.61,0,0,1,.15.26,2.51,2.51,0,0,1,0,.48v2.06a1,1,0,0,0,.36.83,1.51,1.51,0,0,0,1,.3,1.93,1.93,0,0,0,1.43-.61A2.48,2.48,0,0,0,41.92,59.79Zm5.45-5.5,0,.16a2.28,2.28,0,0,1-.19.46,2,2,0,0,1-.25.36,1.35,1.35,0,0,1-.59.39v.08h.52v3a2.53,2.53,0,0,0,0,.59.54.54,0,0,0,.18.27,1.22,1.22,0,0,0,.84.23,1.74,1.74,0,0,0,.72-.14,1.06,1.06,0,0,0,.45-.44L49,59.15a1.12,1.12,0,0,1-.32.33.64.64,0,0,1-.36.09A.68.68,0,0,1,48,59.5a.67.67,0,0,1-.25-.19,1.22,1.22,0,0,1-.17-.73V55.74h1.23v-.18H47.55V54.29ZM52,56c0,.08.11.23.2.44l.14.35,1,2.43a2.06,2.06,0,0,1,.18.63,1.15,1.15,0,0,1-.09.36l-.15.37c-.13.31-.29.46-.49.46l-.11,0-.21-.07a.68.68,0,0,0-.29-.07.36.36,0,0,0-.24.07.25.25,0,0,0-.09.2.31.31,0,0,0,.16.27.8.8,0,0,0,.41.1.87.87,0,0,0,.67-.31,3.32,3.32,0,0,0,.4-.8L54.86,57a7.89,7.89,0,0,1,.45-1,.53.53,0,0,1,.19-.2,1,1,0,0,1,.31-.13v-.1H54.42v.1a.63.63,0,0,1,.36.16.5.5,0,0,1,.12.35,3,3,0,0,1-.27.93l-.7,1.76-.82-2.09a2.35,2.35,0,0,1-.19-.7.35.35,0,0,1,.19-.33.87.87,0,0,1,.28-.08v-.1H51.51v.1a.58.58,0,0,1,.29.12A.52.52,0,0,1,52,56Zm12.53.15a2.51,2.51,0,0,1,0,.48v2.06a1,1,0,0,0,.36.83,1.51,1.51,0,0,0,1,.3,1.93,1.93,0,0,0,1.43-.61,3.08,3.08,0,0,0,.07.61l1.33-.18v-.1a.88.88,0,0,1-.33-.08.57.57,0,0,1-.21-.2.86.86,0,0,1-.1-.33,5.37,5.37,0,0,1,0-.7V55.56H66.6v.1a1,1,0,0,1,.5.2.61.61,0,0,1,.15.26,2.72,2.72,0,0,1,0,.48v1.32a4.94,4.94,0,0,1-.05.81,1.08,1.08,0,0,1-.18.44.94.94,0,0,1-.38.29,1.18,1.18,0,0,1-.5.11.93.93,0,0,1-.45-.1.79.79,0,0,1-.31-.26,1.24,1.24,0,0,1-.13-.41,7,7,0,0,1,0-.77V55.56H63.83v.1a1,1,0,0,1,.5.2A.61.61,0,0,1,64.48,56.12Zm8.67-.7-1.42.19v.13a.67.67,0,0,1,.58.23,1.32,1.32,0,0,1,.18.78v3.37a5.32,5.32,0,0,1,0,.65,1,1,0,0,1-.07.34.48.48,0,0,1-.21.25,1.27,1.27,0,0,1-.41.1v.1h2.14v-.1a1,1,0,0,1-.5-.19.61.61,0,0,1-.15-.26,2.72,2.72,0,0,1,0-.49V59.29a2.52,2.52,0,0,0,.61.39,1.73,1.73,0,0,0,.63.11,2,2,0,0,0,1.86-1.23,2.53,2.53,0,0,0,.19-1,2.42,2.42,0,0,0-.18-.94,1.89,1.89,0,0,0-.51-.7,1.87,1.87,0,0,0-1.26-.45,2.15,2.15,0,0,0-.68.11,2.59,2.59,0,0,0-.68.35v-.1A1.6,1.6,0,0,0,73.15,55.42Zm.13,1.26a1.52,1.52,0,0,1,.2-.58,1,1,0,0,1,.37-.35,1,1,0,0,1,.48-.13,1.09,1.09,0,0,1,.89.5,2.21,2.21,0,0,1,.33.69,2.86,2.86,0,0,1,.12.82,3,3,0,0,1-.13.84,2.06,2.06,0,0,1-.36.69,1.09,1.09,0,0,1-.89.49,1,1,0,0,1-.81-.41,1.37,1.37,0,0,1-.2-.55,6.43,6.43,0,0,1-.06-1A6.17,6.17,0,0,1,73.28,56.68Zm13.17-.59V56a2.67,2.67,0,0,0-.07-.53l-1.33.18v.1a.84.84,0,0,1,.33.08.46.46,0,0,1,.2.19.8.8,0,0,1,.11.33,6.17,6.17,0,0,1,0,.7v1.2a5.66,5.66,0,0,1,0,.65,1.1,1.1,0,0,1-.07.34.56.56,0,0,1-.21.24,1.23,1.23,0,0,1-.42.11v.1h2.15v-.1a1,1,0,0,1-.5-.2.58.58,0,0,1-.15-.25,2,2,0,0,1,0-.49V57.34a5.16,5.16,0,0,1,0-.81,1.09,1.09,0,0,1,.19-.44.89.89,0,0,1,.37-.29,1.12,1.12,0,0,1,.51-.11,1.14,1.14,0,0,1,.46.09.72.72,0,0,1,.32.27,1,1,0,0,1,.14.4,7.08,7.08,0,0,1,0,.78v1a5.75,5.75,0,0,1,0,.65,1.18,1.18,0,0,1-.07.34.5.5,0,0,1-.21.24,1.23,1.23,0,0,1-.41.11v.1h2.14v-.1a1,1,0,0,1-.5-.2.58.58,0,0,1-.15-.25,2.72,2.72,0,0,1,0-.49V56.59a1,1,0,0,0-.37-.82,1.63,1.63,0,0,0-1-.29A2,2,0,0,0,86.45,56.09ZM94,53.73a.41.41,0,0,0,.31-.12.39.39,0,0,0,.13-.31.38.38,0,0,0-.13-.3.43.43,0,0,0-.31-.12.41.41,0,0,0-.31.12.38.38,0,0,0-.13.3.41.41,0,0,0,.12.31A.45.45,0,0,0,94,53.73ZM95.1,59.6a1,1,0,0,1-.5-.2.44.44,0,0,1-.15-.25,2,2,0,0,1,0-.49V55.48l-1.4.18v.1a.88.88,0,0,1,.33.08.46.46,0,0,1,.2.19.8.8,0,0,1,.11.33c0,.14,0,.37,0,.7v1.2c0,.29,0,.5,0,.65a.85.85,0,0,1-.08.34.48.48,0,0,1-.2.24,1.23,1.23,0,0,1-.42.11v.1H95.1Zm6.33,1.52a1.15,1.15,0,0,0,.49-1,1,1,0,0,0-.43-.89A1.34,1.34,0,0,0,101,59a2.88,2.88,0,0,0-.71-.07h-.8c-.41,0-.61-.11-.61-.32s.24-.37.71-.4l.62-.05a1.69,1.69,0,0,0,.61-.24,1.17,1.17,0,0,0,.56-1,1.58,1.58,0,0,0-.39-1,.58.58,0,0,1,.37-.18.33.33,0,0,1,.27.12l.11.15a.35.35,0,0,0,.28.16.19.19,0,0,0,.17-.08.23.23,0,0,0,.07-.18.37.37,0,0,0-.17-.31.67.67,0,0,0-.39-.11,1,1,0,0,0-.39.08,1.55,1.55,0,0,0-.42.26,1.7,1.7,0,0,0-1-.34,1.44,1.44,0,0,0-.6.13,1.46,1.46,0,0,0-.5.35,1.27,1.27,0,0,0-.37.88,1.12,1.12,0,0,0,.24.7,1.55,1.55,0,0,0,.65.52,2.19,2.19,0,0,0-.6.21.61.61,0,0,0-.32.55.69.69,0,0,0,.3.56,1.23,1.23,0,0,0,.77.22h.77a1.27,1.27,0,0,1,.76.2.62.62,0,0,1,.27.55.85.85,0,0,1-.4.73,1.86,1.86,0,0,1-1,.28,1.94,1.94,0,0,1-1-.25.76.76,0,0,1-.39-.65.61.61,0,0,1,.13-.41.43.43,0,0,1,.33-.15.36.36,0,0,1,.21.05.64.64,0,0,1,.16.19l.09,0v-.06a.44.44,0,0,0-.14-.34.49.49,0,0,0-.36-.14.68.68,0,0,0-.51.23.79.79,0,0,0-.21.56.94.94,0,0,0,.29.69,2.13,2.13,0,0,0,1.5.43A2.59,2.59,0,0,0,101.43,61.12Zm-2.28-4.24a2.22,2.22,0,0,1,.06-.51,1.54,1.54,0,0,1,.17-.43.64.64,0,0,1,.56-.35.55.55,0,0,1,.48.27,1.63,1.63,0,0,1,.25,1,1.83,1.83,0,0,1-.19.92.61.61,0,0,1-.55.32.65.65,0,0,1-.56-.33A1.47,1.47,0,0,1,99.15,56.88Zm6.57,2a1.13,1.13,0,0,1-.08.34.54.54,0,0,1-.2.24,1.38,1.38,0,0,1-.42.11v.1h2.14v-.1a1,1,0,0,1-.49-.2.44.44,0,0,1-.15-.25,2,2,0,0,1,0-.49V57.52q0-1.86,1.17-1.86a.88.88,0,0,1,.7.29.78.78,0,0,1,.18.35,2.14,2.14,0,0,1,0,.56V58.4a4.78,4.78,0,0,1,0,.62.71.71,0,0,1-.12.33.54.54,0,0,1-.2.17,1.39,1.39,0,0,1-.36.08v.1H110v-.1a1,1,0,0,1-.5-.2.58.58,0,0,1-.15-.25,2,2,0,0,1,0-.49V56.87a2.22,2.22,0,0,0-.1-.74.92.92,0,0,0-.37-.42,1.81,1.81,0,0,0-1-.23,1.71,1.71,0,0,0-.8.18,2,2,0,0,0-.32.2l-.3.33V52.85l-1.4.18v.1a1.18,1.18,0,0,1,.34.07.64.64,0,0,1,.2.2,1,1,0,0,1,.11.33c0,.14,0,.37,0,.7v3.82C105.74,58.54,105.73,58.76,105.72,58.91Zm9.65.57a.64.64,0,0,1-.36.09.68.68,0,0,1-.32-.07.67.67,0,0,1-.25-.19,1.22,1.22,0,0,1-.17-.73V55.74h1.23v-.18h-1.23V54.29h-.18l0,.16a3.16,3.16,0,0,1-.18.46,2.7,2.7,0,0,1-.26.36,1.35,1.35,0,0,1-.59.39v.08h.52v3a2.53,2.53,0,0,0,0,.59.54.54,0,0,0,.18.27,1.22,1.22,0,0,0,.84.23,1.74,1.74,0,0,0,.72-.14,1,1,0,0,0,.44-.44l-.07-.06A1.12,1.12,0,0,1,115.37,59.48Zm9-5.29v5.72h.2c.12-.27.27-.4.43-.4a.51.51,0,0,1,.2,0l.28.11a2,2,0,0,0,.78.13,2,2,0,0,0,1.44-.53,2.19,2.19,0,0,0,.65-1.67,2,2,0,0,0-.68-1.63,1.87,1.87,0,0,0-1.28-.48,1.63,1.63,0,0,0-.9.24,1.7,1.7,0,0,0-.38.38V52.85l-1.49.2v.12a.66.66,0,0,1,.58.24A1.33,1.33,0,0,1,124.33,54.19Zm.91,2.06a1,1,0,0,1,.36-.45.84.84,0,0,1,.52-.18.93.93,0,0,1,.45.13,1.25,1.25,0,0,1,.41.36,2.11,2.11,0,0,1,.36.7,3,3,0,0,1,.12.87,2.49,2.49,0,0,1-.38,1.44,1.15,1.15,0,0,1-1,.56,1,1,0,0,1-.51-.13.94.94,0,0,1-.33-.38,2.51,2.51,0,0,1-.15-.64,7.15,7.15,0,0,1-.05-1A3.55,3.55,0,0,1,125.24,56.25Zm9-.77a1.57,1.57,0,0,0-.92.29,1.39,1.39,0,0,0-.39.46,3.78,3.78,0,0,0-.09-.75l-1.25.18v.1a.89.89,0,0,1,.34.08.52.52,0,0,1,.2.19.8.8,0,0,1,.1.33,5.59,5.59,0,0,1,0,.7v1.2c0,.29,0,.5,0,.65a1.06,1.06,0,0,1-.08.34.54.54,0,0,1-.2.24,1.38,1.38,0,0,1-.42.11v.1h2.14v-.1a1,1,0,0,1-.49-.2.51.51,0,0,1-.16-.25,2.93,2.93,0,0,1,0-.49V57.38a3,3,0,0,1,.19-1.2q.18-.42.51-.42a.55.55,0,0,1,.42.19l.15.16a.38.38,0,0,0,.29.14.32.32,0,0,0,.23-.09.29.29,0,0,0,.09-.22.41.41,0,0,0-.15-.32A.74.74,0,0,0,134.22,55.48Zm5.6,4.13a3.49,3.49,0,0,0,.49-.38,1.35,1.35,0,0,0,.31.39,1,1,0,0,0,.58.17.76.76,0,0,0,.8-.51l-.09-.05a.58.58,0,0,1-.2.21.37.37,0,0,1-.23.06.39.39,0,0,1-.4-.35,2.9,2.9,0,0,1,0-.62V56.72a1.92,1.92,0,0,0,0-.49.77.77,0,0,0-.39-.47,2.19,2.19,0,0,0-.55-.2,2.7,2.7,0,0,0-.62-.08,2.64,2.64,0,0,0-.55.06,2.2,2.2,0,0,0-.47.14c-.23.12-.35.26-.35.42a.39.39,0,0,0,.11.28.41.41,0,0,0,.28.11.36.36,0,0,0,.35-.23l.12-.28a.61.61,0,0,1,.23-.29.63.63,0,0,1,.36-.1.67.67,0,0,1,.31.07.63.63,0,0,1,.25.2,1.25,1.25,0,0,1,.22.83,1.17,1.17,0,0,1-.06.42.66.66,0,0,1-.21.27,1.79,1.79,0,0,1-.34.17,6.32,6.32,0,0,1-.63.18,2.35,2.35,0,0,0-.54.19,1.16,1.16,0,0,0-.34.24,1,1,0,0,0-.26.67.86.86,0,0,0,.32.7,1.31,1.31,0,0,0,.85.26A1.44,1.44,0,0,0,139.82,59.61Zm-1-.74a1,1,0,0,1,.23-.66,1.31,1.31,0,0,1,.24-.23l.49-.29a3.87,3.87,0,0,0,.58-.38v.81a2.38,2.38,0,0,1-.15,1,1,1,0,0,1-.32.4.82.82,0,0,1-.45.14.51.51,0,0,1-.44-.21A.77.77,0,0,1,138.77,58.87ZM18.47,85.24a.45.45,0,0,1-.26-.38c0-.23,0-.74.12-1.52,0,0,0-.08-.09-.1s-.12,0-.14.06a4.82,4.82,0,0,1-.82,2,3,3,0,0,1-1.61.26,1.93,1.93,0,0,1-.85-.12c-.12-.07-.19-.26-.19-.55v-3c.38-.17.58-.31.58-.43s-.54-.33-1.61-.43c.05.44.07,1.15.07,2.13l0,1.87A1.41,1.41,0,0,0,14,86.14a2.51,2.51,0,0,0,1.65.39,9,9,0,0,0,2.25-.19c.52-.15.79-.38.79-.71A.39.39,0,0,0,18.47,85.24Zm-1.74-4.62c0,.22.14.33.41.33s.62-.14.62-.43l-.05-2.79v-1c.27-.19.4-.33.4-.44s-.1-.22-.3-.4-.52-.42-.63-.42-.29.19-.6.58H13.67A19.13,19.13,0,0,0,15.36,74c.41-.11.62-.24.62-.38s-.12-.28-.35-.51-.55-.48-.63-.48-.32.21-.66.61H11.68a9.74,9.74,0,0,0,.49-1.13c.45-.07.68-.19.68-.36s-.52-.36-1.57-.62a6.93,6.93,0,0,1-.41,1.54,14,14,0,0,1-2.82,4.59s0,0,0,0,0,.13.12.13l.05,0a10.78,10.78,0,0,0,1.09-.88v1.34l-.05,2.79c0,.24.15.35.43.35s.61-.14.61-.41v-.3h2.09a8.57,8.57,0,0,1-1.29,2.92,10.68,10.68,0,0,1-4,3.36.08.08,0,0,0,0,.08c0,.1,0,.15.1.15h0a9.81,9.81,0,0,0,4.65-3.19,8.48,8.48,0,0,0,1.54-3.32h3.33Zm-4.24-.79h-2.2V76.47H12.8A26.07,26.07,0,0,1,12.49,79.83Zm.75-3.77H10.51l-.5-.3a11.28,11.28,0,0,0,1.46-2.13h2.89A17.1,17.1,0,0,1,13.24,76.06Zm.26,3.77a23.09,23.09,0,0,0,.34-3.36h2.89v3.36ZM7.92,83.36l0-6.63V73.55c.28-.18.43-.33.43-.44s-.1-.24-.28-.4c-.34-.29-.55-.43-.65-.43s-.26.19-.58.56H5a9.19,9.19,0,0,0-1.18-.59c.06.73.08,2.34.08,4.83l-.08,7c0,.22.14.33.43.33s.64-.13.64-.39V83h2v.45c0,.22.14.33.43.33S7.92,83.65,7.92,83.36Zm-1-.78h-2V78.06h2Zm0-5h-2V73.27h2Zm29.49-4.52c-.1,0-.34.21-.72.64h-5V72.28c.4-.18.6-.33.6-.46s-.08-.2-.25-.26a8,8,0,0,0-1.52-.23,10.81,10.81,0,0,1,.09,1.31v1.11H24.8a4.93,4.93,0,0,0-.09-.86.1.1,0,0,0-.11-.08c-.07,0-.1,0-.1.08a2.83,2.83,0,0,1-.31,1.21,2.52,2.52,0,0,1-1,.93.78.78,0,0,0-.48.66.64.64,0,0,0,.15.43.57.57,0,0,0,.46.21,1.1,1.1,0,0,0,.88-.52,2.94,2.94,0,0,0,.56-1.63H35.71A12.54,12.54,0,0,1,34.89,76v0c0,.06,0,.1.11.1a.09.09,0,0,0,.07,0,13.21,13.21,0,0,0,1.38-1.23.89.89,0,0,1,.29-.21,1.28,1.28,0,0,1,.41,0c.37,0,.56-.1.56-.31s-.15-.29-.43-.57C36.79,73.33,36.49,73.11,36.38,73.11Zm.88,4.64a5,5,0,0,0-1-.75,5.27,5.27,0,0,0-1,1H28.82c.29-.59.62-1.33,1-2.21.45-.1.67-.22.67-.36s-.53-.36-1.6-.68a9.07,9.07,0,0,1-.53,1.7c-.28.66-.51,1.18-.68,1.55H24.23a7,7,0,0,1-1.35-.13l.18.65a7.33,7.33,0,0,1,1.17-.08h3.18a29.54,29.54,0,0,1-2.06,3.46.86.86,0,0,0-.21.41c0,.08.08.15.24.23a1,1,0,0,0,.47.14.37.37,0,0,0,.23-.06,1.46,1.46,0,0,0,.28-.34c.29-.44.47-.71.54-.8a28.86,28.86,0,0,1,3.33,1.4q-2.37,2.5-7.32,3.37s-.06.05-.06.11,0,.15.1.14a19.24,19.24,0,0,0,4.53-.88,9.3,9.3,0,0,0,3.65-2.23,13.9,13.9,0,0,1,3.1,2.28q.51.5.72.66a.76.76,0,0,0,.44.17.36.36,0,0,0,.29-.15.72.72,0,0,0,.15-.49c0-.44-.33-.93-1-1.47a13.5,13.5,0,0,0-3.06-1.7,11.49,11.49,0,0,0,2.08-4.25h3.62c.15,0,.23-.06.23-.17S37.55,78,37.26,77.75Zm-6.52,4.54a29.73,29.73,0,0,0-3.68-1.11c.55-.9,1.07-1.82,1.55-2.75h4A10.73,10.73,0,0,1,30.74,82.29ZM45.2,76.58q-.12,0-.12.09v0a16.53,16.53,0,0,1,1.34,5.67,2,2,0,0,0,.13.78.45.45,0,0,0,.43.26.58.58,0,0,0,.48-.25,1.37,1.37,0,0,0,.24-.86,7.11,7.11,0,0,0-.55-2.53,11.79,11.79,0,0,0-1.86-3.16A.11.11,0,0,0,45.2,76.58Zm11.55,8.23a4.32,4.32,0,0,0-1-.79c-.11,0-.44.36-1,1.07H50.27a44.58,44.58,0,0,0,3.38-7.58c.45-.06.67-.18.67-.36s-.6-.49-1.82-.85a16,16,0,0,1-.44,2.17,46.14,46.14,0,0,1-2.28,6.62H43.25a9,9,0,0,1-1.42-.1l.16.65a7.14,7.14,0,0,1,1.28-.11H57c.16,0,.24-.06.24-.16S57.06,85.1,56.75,84.81Zm-8-13.39a12.87,12.87,0,0,1,.08,1.49v2H44.16a9.06,9.06,0,0,1-1.36-.12l.18.65a7.47,7.47,0,0,1,1.2-.1H56.09q.24,0,.24-.15c0-.11-.14-.29-.41-.52a4.11,4.11,0,0,0-1-.73c-.1,0-.43.32-1,1h-4V72.37c.41-.18.62-.33.62-.46s-.09-.18-.26-.25A9.89,9.89,0,0,0,48.72,71.42ZM66,77.71c-.08,0-.26.17-.53.5H63.36a5.35,5.35,0,0,0-1-.56c0,.6.05,1.93.05,4l-.05,4.82c0,.24.13.36.4.36s.58-.14.58-.43V82.85h2.24v2.52c0,.17-.08.26-.25.26a8.26,8.26,0,0,1-1.15-.09s-.07,0-.07.1,0,.12.07.13c.61.14.94.39,1,.76a.23.23,0,0,0,.25.19,1.31,1.31,0,0,0,.73-.25,1.1,1.1,0,0,0,.34-.94l0-4.69V78.91c.27-.17.41-.3.41-.38s-.09-.22-.28-.39S66.06,77.71,66,77.71Zm-.44,4.71H63.3V80.69h2.24Zm0-2.16H63.3V78.64h2.24Zm10.28.37c0-.1-.09-.22-.26-.36a1.75,1.75,0,0,0-.61-.4c-.06,0-.24.15-.54.47H69.62a11,11,0,0,0-1.09-.54,17.41,17.41,0,0,1,.08,1.8l0,1.63a.41.41,0,0,0,.06.26.54.54,0,0,0,.31.07q.57,0,.57-.42v-.29h5v.21c0,.21.13.32.38.32s.59-.14.59-.42l-.06-1.55V81C75.69,80.86,75.82,80.72,75.82,80.63Zm-1.31,1.79h-5V80.77h5Zm2.2,3.27a3.18,3.18,0,0,0-.81-.6c-.09,0-.35.25-.78.73h-2.2a8.34,8.34,0,0,0,1.25-1.52c.39,0,.59-.12.59-.26s-.43-.37-1.3-.7a7.32,7.32,0,0,1-.24.92,13.27,13.27,0,0,1-.69,1.56H68.16a7.52,7.52,0,0,1-1.13-.1l.17.63a4.73,4.73,0,0,1,1-.1h8.61c.15,0,.23,0,.23-.17S76.91,85.86,76.71,85.69Zm-7-2.29c-.07,0-.11,0-.11.08l0,0a3.88,3.88,0,0,1,.55,1.6q.08.48.45.48a.45.45,0,0,0,.34-.15.72.72,0,0,0,.17-.5c0-.57-.46-1.08-1.38-1.54Zm7-4.33c0-.11-.09-.24-.28-.4a2.88,2.88,0,0,0-.8-.57c-.1,0-.34.23-.74.69H68.42a6.54,6.54,0,0,1-1.11-.1l.17.63a4.63,4.63,0,0,1,.94-.1h8.16Q76.79,79.22,76.79,79.07Zm-8.63-6.59c0,.51.08,1.31.08,2.43l-.06,3c0,.21.13.31.4.31s.52-.13.52-.4v-.17H75c0,.2.13.29.38.29s.54-.12.54-.38l-.06-2.84v-.94c.28-.16.42-.3.42-.41s-.09-.22-.26-.38c-.32-.29-.51-.43-.59-.43s-.26.16-.53.48H73.54V71.93c.31-.11.47-.23.47-.34s-.46-.3-1.37-.43A17.6,17.6,0,0,1,72.72,73H71.31V71.92c.31-.13.46-.25.46-.35s-.45-.29-1.35-.38A15.14,15.14,0,0,1,70.49,73H69.23A11,11,0,0,0,68.16,72.48Zm5.38,1H75v1.62H73.54Zm0,2H75v1.7H73.54Zm-2.23-2h1.41v1.62H71.31Zm0,2h1.41v1.7H71.31Zm-.82,1.7H69.1v-1.7h1.39Zm0-2.13H69.1V73.47h1.39Zm-3.66,1.68a4.79,4.79,0,0,1-.49,1s0,0,0,0,0,.09.11.09h0a7.64,7.64,0,0,0,.84-.62.73.73,0,0,1,.31-.2c.3,0,.45-.09.45-.2s-.1-.28-.31-.51-.45-.43-.53-.43-.22.15-.45.43h-.15V72.54c.25-.15.37-.27.37-.36s-.09-.21-.27-.36-.45-.37-.53-.37-.24.15-.48.43H63.15c-.2-.11-.53-.26-1-.46.05.48.07,1.2.07,2.14v2.79h-.34c0-.09-.07-.28-.14-.55a.08.08,0,0,0-.09-.07c-.06,0-.08,0-.08.07a3.48,3.48,0,0,1-.11,1,2.21,2.21,0,0,1-.56.91.74.74,0,0,0-.26.55.52.52,0,0,0,.13.36.43.43,0,0,0,.35.16.66.66,0,0,0,.58-.42A2.65,2.65,0,0,0,62,77.19c0-.14,0-.28,0-.42Zm-1-.42h-1V74.43h1Zm-2.77-4h2.77V74h-.94a5.52,5.52,0,0,0-.91-.48A12,12,0,0,1,64.05,75v1.38h-1ZM86,73.65c.41,0,.61-.23.61-.68a1.29,1.29,0,0,0-.47-.91,4,4,0,0,0-1.61-.86h0c-.08,0-.12,0-.12.1a.09.09,0,0,0,0,.06,4,4,0,0,1,1.07,1.84C85.53,73.49,85.7,73.65,86,73.65Zm5.88,10.87a7.87,7.87,0,0,1-3.48-2.73h7.17c.15,0,.22-.05.22-.15s-.12-.27-.36-.47a3.73,3.73,0,0,0-1-.69c-.08,0-.37.29-.85.88H88.16v0q.1-.5.15-.75c.39-.13.58-.28.58-.44s-.08-.18-.26-.23-.64-.13-1.42-.25v.19a5.63,5.63,0,0,1-.07.87c0,.14-.06.36-.13.66h-5a8.16,8.16,0,0,1-1.39-.12l.15.65a6.41,6.41,0,0,1,1.24-.1h4.81a5.6,5.6,0,0,1-1.17,2,10.09,10.09,0,0,1-5.15,2.66s-.06,0-.06.1,0,.19.11.18a10.92,10.92,0,0,0,5.48-2.05A5.59,5.59,0,0,0,88,81.89a8.26,8.26,0,0,0,3.11,3.34,11.15,11.15,0,0,0,2.93,1.25,3.54,3.54,0,0,0,.84.15.27.27,0,0,0,.29-.21,1.89,1.89,0,0,1,.33-.58,1.15,1.15,0,0,1,.55-.3.1.1,0,0,0,.08-.11c0-.05,0-.07-.08-.07A11.8,11.8,0,0,1,91.84,84.52ZM82.72,73.84a6,6,0,0,1-1.35-.14l.17.68a5.81,5.81,0,0,1,1.19-.11h4.75v2H83.69a6.9,6.9,0,0,1-1.32-.14l.17.67a5.6,5.6,0,0,1,1.17-.1h3.77v2.16H82a7.71,7.71,0,0,1-1.43-.12l.17.65a7,7,0,0,1,1.28-.11H95.48c.17,0,.25,0,.25-.15s-.13-.26-.38-.47a3.9,3.9,0,0,0-.93-.66c-.1,0-.39.28-.88.86h-5V76.71h5.32c.14,0,.21-.06.21-.17s-.12-.26-.36-.45a3.76,3.76,0,0,0-.89-.61c-.09,0-.37.27-.82.8H88.54v-2H95c.15,0,.23,0,.23-.16s-.14-.26-.4-.48a3.4,3.4,0,0,0-.9-.62c-.08,0-.37.28-.85.83H89.89a11,11,0,0,0,1.64-1.63c.47,0,.71-.12.71-.28s-.51-.43-1.52-.84a5.8,5.8,0,0,1-.32.86,12.36,12.36,0,0,1-1,1.89ZM101.13,76h1.35a8.93,8.93,0,0,1-.42,2.26A6.72,6.72,0,0,1,100,81a.08.08,0,0,0,0,.06.12.12,0,0,0,.14.14h0a6.33,6.33,0,0,0,2.66-2.62,7.19,7.19,0,0,0,.64-2.56h2.12v.76l-.09,3.47c0,.28.16.43.48.43s.67-.17.67-.5l-.06-3.74V76h2.52c.15,0,.23-.06.23-.17s-.11-.24-.33-.41c-.46-.41-.74-.61-.84-.61s-.34.25-.75.76h-.83v-3h2.06c.15,0,.22-.06.22-.16s-.1-.25-.31-.41a2.86,2.86,0,0,0-.88-.61c-.09,0-.34.25-.75.74h-5.4a8.49,8.49,0,0,1-1.26-.09l.18.63a5.92,5.92,0,0,1,1.1-.1h1v1.47c0,.39,0,.89,0,1.52h-1.37a6.79,6.79,0,0,1-1.31-.12l.17.65A6.27,6.27,0,0,1,101.13,76Zm2.42-2v-1.4h2v3h-2.08Q103.55,74.63,103.55,74Zm7.54-1.79a8.37,8.37,0,0,0-1.38-.22c.05.45.08,1.33.08,2.65l-.05,3.44c0,.28.16.42.46.42s.64-.16.64-.47l0-3.65v-1.5c.35-.16.53-.31.53-.44S111.25,72.24,111.09,72.19Zm1.69,7.5c-.37,0-.92,0-1.65-.08q-.09,0-.09.12c0,.07,0,.11.07.12a5.53,5.53,0,0,1,1.11.37.68.68,0,0,1,.4.5c0,.12,0,.19.08.22s.09,0,.2,0a1.16,1.16,0,0,0,.81-.3,1.15,1.15,0,0,0,.46-.93l-.06-4.08V72.2c.39-.17.58-.31.58-.44s-.08-.18-.25-.23a11.07,11.07,0,0,0-1.42-.26c0,.47.07,1.36.07,2.67V79.4C113.09,79.59,113,79.69,112.78,79.69Zm2.28,5.78a3.6,3.6,0,0,0-1-.69c-.09,0-.4.31-.93.92H108V82.85h5.26c.15,0,.22-.06.22-.16s-.12-.25-.37-.46a3.2,3.2,0,0,0-.93-.66c-.1,0-.39.28-.88.85H108V81.16c.37-.17.56-.33.56-.46s-.08-.16-.24-.21a8.28,8.28,0,0,0-1.45-.24c0,.44.07,1.11.07,2v.16H102.9a7.47,7.47,0,0,1-1.29-.11l.18.64a5.8,5.8,0,0,1,1.13-.1h4V85.7h-5.69a8.24,8.24,0,0,1-1.35-.12l.18.66a6.28,6.28,0,0,1,1.17-.11h14c.15,0,.23,0,.23-.17S115.32,85.69,115.06,85.47ZM132.71,74.6c-.1,0-.33.21-.7.62h-4.78a11.78,11.78,0,0,1-.42-2.59c.46-.23.69-.4.69-.5s-.09-.2-.27-.38-.45-.38-.54-.38-.23.16-.5.5h-1.68a6.78,6.78,0,0,1-1.33-.12l.18.67a6.44,6.44,0,0,1,1.16-.12h1.86a20.06,20.06,0,0,0,.26,2.92h-4.78a11.39,11.39,0,0,0-1.36-.69c.06.6.09,2.16.09,4.67,0,2.15,0,4.51-.1,7.07,0,.27.16.41.49.41s.69-.16.69-.49V75.65h4.75A14.32,14.32,0,0,1,122,82.49a.09.09,0,0,0,0,.06c0,.11,0,.16.15.16h0A12.53,12.53,0,0,0,127.08,77a12.28,12.28,0,0,0,3.31,5.11c.21.2.34.29.39.29s.15-.09.24-.26a1,1,0,0,1,.7-.56c.07,0,.1,0,.1-.11a.14.14,0,0,0-.06-.11,11.32,11.32,0,0,1-4.4-5.73h4.82v9.17c0,.22-.11.33-.31.33-.63,0-1.39,0-2.29-.11-.06,0-.09,0-.09.1s0,.11.07.12a6.21,6.21,0,0,1,1.49.42.74.74,0,0,1,.49.56c0,.19.11.28.24.28a1.79,1.79,0,0,0,.84-.19,1.21,1.21,0,0,0,.72-1.18l-.08-6.66V76c.31-.2.46-.36.46-.48a.53.53,0,0,0-.24-.38A2.68,2.68,0,0,0,132.71,74.6ZM154,84.87a13.21,13.21,0,0,1-2.48-1.41,12,12,0,0,1-2.09-2,9.42,9.42,0,0,1-.91-1.29,20.21,20.21,0,0,0,3.15-2.49h.15c.41,0,.62-.08.62-.23s-.49-.53-1.48-1.07a6.21,6.21,0,0,1-.82,1.36,16.79,16.79,0,0,1-1.8,2.1,17.4,17.4,0,0,1-1.71-4.72h7c.16,0,.24,0,.24-.16s-.15-.29-.44-.54a3.73,3.73,0,0,0-1-.69c-.1,0-.41.32-.94,1h-4.94V72.37c.4-.16.61-.32.61-.47s-.09-.17-.26-.23a8.44,8.44,0,0,0-1.52-.25,10.28,10.28,0,0,1,.09,1.42v1.82H140a7.69,7.69,0,0,1-1.4-.12l.18.65a8.19,8.19,0,0,1,1.22-.1h5a17.65,17.65,0,0,1-6.56,6.38.05.05,0,0,0,0,.06c0,.11,0,.17.14.17h0a18.18,18.18,0,0,0,3.94-2.29v5c-.47.14-1,.26-1.55.38a7,7,0,0,1-1.17.16c.22.66.38,1.11.49,1.34s.21.35.3.35.26-.21.35-.64a30.27,30.27,0,0,0,6.95-3.22s0,0,0-.07,0-.14-.12-.14h0c-1.54.64-3,1.16-4.25,1.55V78.54a14.86,14.86,0,0,0,1.81-2.05c.26-.36.56-.83.91-1.4h0A17.11,17.11,0,0,0,148.6,82a12.82,12.82,0,0,0,3.7,3.8,1.7,1.7,0,0,0,.66.31c.12,0,.2-.07.25-.21a1.85,1.85,0,0,1,.28-.55.81.81,0,0,1,.47-.24.13.13,0,0,0,.09-.13A.07.07,0,0,0,154,84.87Z"/></g></g></g></svg>